<!-- Generated by IcoMoon.io -->
<svg version="1.1" xmlns="http://www.w3.org/2000/svg" width="640" height="640" viewBox="0 0 640 640">
    <path fill="#72ffff"
          d="M51.249 253.962l50.806 50.806c1.021 1.028 1.934 2.139 2.743 3.346 0.799 1.199 1.481 2.474 2.033 3.804 0.552 1.339 0.97 2.712 1.255 4.136 0.284 1.416 0.426 2.847 0.426 4.293s-0.142 2.883-0.426 4.3c-0.284 1.416-0.701 2.792-1.255 4.131s-1.233 2.606-2.033 3.813c-0.809 1.199-1.721 2.316-2.743 3.338l-50.806 50.806c-13.877 13.877-37.608 4.047-37.603-15.591v-101.618c-0.006-19.595 23.726-29.432 37.603-15.556z"></path>
    <path fill="#00d7ff"
          d="M51.249 253.962c-13.8-13.8-37.264-4.151-37.587 15.229 0 0 79.949 75.649 67.232 87.984l21.202-21.209c1.028-1.021 1.942-2.132 2.742-3.338 0.809-1.204 1.481-2.474 2.033-3.813 0.561-1.332 0.977-2.712 1.255-4.131 0.284-1.416 0.426-2.847 0.426-4.293 0-1.453-0.142-2.883-0.426-4.3-0.277-1.416-0.694-2.797-1.255-4.131-0.552-1.339-1.224-2.606-2.033-3.813-0.799-1.204-1.714-2.316-2.742-3.337z"></path>
    <path fill="#590696"
          d="M171.721 261.167c0 0.942-0.094 1.884-0.277 2.806-0.183 0.927-0.455 1.828-0.821 2.708-0.363 0.872-0.799 1.701-1.325 2.488s-1.126 1.517-1.794 2.182c-0.666 0.666-1.394 1.268-2.182 1.794s-1.616 0.964-2.488 1.325c-0.879 0.369-1.777 0.638-2.708 0.821-0.922 0.183-1.863 0.277-2.806 0.277s-1.884-0.094-2.806-0.277c-0.927-0.183-1.828-0.455-2.708-0.821-0.872-0.363-1.701-0.799-2.488-1.325s-1.517-1.126-2.182-1.794c-0.666-0.666-1.267-1.394-1.794-2.182s-0.964-1.616-1.325-2.488c-0.369-0.879-0.638-1.777-0.821-2.708-0.183-0.922-0.277-1.862-0.277-2.806s0.094-1.884 0.277-2.806c0.183-0.927 0.455-1.828 0.821-2.708 0.363-0.872 0.799-1.701 1.325-2.488s1.126-1.517 1.794-2.182c0.666-0.666 1.394-1.268 2.182-1.794s1.616-0.964 2.488-1.325c0.879-0.369 1.777-0.638 2.708-0.821 0.922-0.183 1.862-0.277 2.806-0.277s1.884 0.094 2.806 0.277c0.927 0.183 1.828 0.455 2.708 0.821 0.872 0.362 1.701 0.799 2.488 1.325s1.517 1.126 2.182 1.794c0.666 0.666 1.268 1.394 1.794 2.182s0.964 1.616 1.325 2.488c0.369 0.879 0.638 1.777 0.821 2.708 0.183 0.922 0.277 1.863 0.277 2.806z"></path>
    <path fill="#0096ff"
          d="M165.266 304.897l-50.813-50.806c-13.636-13.651-49.991 2.176-37.553 14.621l36.541 36.546c1.021 1.021 1.934 2.132 2.743 3.338 0.799 1.204 1.481 2.474 2.033 3.804 0.552 1.339 0.97 2.712 1.255 4.131 0.284 1.424 0.426 2.857 0.426 4.3s-0.143 2.876-0.426 4.293c-0.284 1.424-0.701 2.797-1.255 4.136-0.552 1.332-1.233 2.6-2.033 3.804-0.809 1.204-1.721 2.316-2.743 3.338l-36.518 36.524c-11.128 11.123 24.028 27.529 37.531 14.026l50.813-50.813c1.028-1.021 1.947-2.139 2.755-3.346s1.487-2.479 2.048-3.818c0.561-1.339 0.978-2.721 1.261-4.144 0.291-1.424 0.433-2.861 0.433-4.314s-0.142-2.891-0.433-4.314c-0.284-1.424-0.701-2.806-1.261-4.144s-1.239-2.614-2.048-3.818c-0.809-1.204-1.73-2.316-2.755-3.346z"></path>
    <path fill="#5800ff"
          d="M165.266 304.897l-50.813-50.806c-13.636-13.651-49.991 2.176-37.553 14.621l36.541 36.546c1.764 1.764 3.181 3.768 4.264 6.015s1.756 4.603 2.033 7.085c12.589 14.778 23.058 29.129 25.233 38.069l20.326-20.326c1.027-1.021 1.942-2.139 2.751-3.346s1.488-2.474 2.042-3.813c0.552-1.347 0.97-2.721 1.255-4.144s0.426-2.861 0.426-4.306c-0.006-1.453-0.149-2.891-0.433-4.306-0.284-1.424-0.709-2.806-1.261-4.144-0.561-1.332-1.245-2.606-2.053-3.813s-1.721-2.316-2.751-3.337z"></path>
    <path fill="#201a30"
          d="M217.419 343.396c14.762 0 24.596-9.294 24.596-23.263 0-13.899-9.869-23.194-24.694-23.194h-17.902v46.456zM207.793 304.489h9.287c10.421 0 16.364 6.282 16.364 15.776 0 9.572-6.112 15.542-16.293 15.542h-9.359z"></path>
    <path fill="#201a30"
          d="M271.602 343.396v-17.733l18.341-28.723h-10.009l-12.531 21.209h-0.034l-12.636-21.209h-9.911l18.278 28.797v17.659z"></path>
    <path fill="#201a30"
          d="M304.496 343.396v-32.485l25.311 32.485h7.277v-46.456h-8.471v32.524l-25.311-32.524h-7.311v46.456z"></path>
    <path fill="#201a30"
          d="M389.656 343.396l-19.332-46.49h-8.063l-19.339 46.49h8.99l3.684-8.982h21.387l3.689 8.982zM365.981 308.995l0.277-1.126h0.099l0.204 1.126 7.515 18.313h-15.576z"></path>
    <path fill="#201a30"
          d="M404.038 343.396v-18.244h20.156v-7.175h-20.156v-13.424h23.327v-7.617h-31.836v46.456z"></path>
    <path fill="#201a30"
          d="M456.644 344.388c13.836 0 25.069-10.796 25.069-24.291 0-13.487-11.234-24.248-25.069-24.248s-25.044 10.762-25.044 24.248c0 13.494 11.208 24.291 25.044 24.291zM456.644 336.566c-9.126 0-16.534-7.005-16.534-16.434 0-9.465 7.382-16.499 16.534-16.499 9.188 0 16.598 7.005 16.598 16.499 0 9.428-7.409 16.434-16.598 16.434z"></path>
    <path fill="#201a30"
          d="M498.014 343.396v-16.463h7.956c0.616 0 1.199 0 1.814-0.034l9.188 16.499h9.769l-10.519-17.798c5.703-1.983 9.465-6.971 9.465-13.528 0-9.053-6.728-15.13-16.122-15.13h-20.053v46.456zM498.014 304.518h11.208c4.506 0 7.956 3.316 7.956 7.552 0 4.54-3.413 7.651-7.927 7.686h-11.234z"></path>
    <path fill="#201a30"
          d="M542.249 343.396v-32.897l13.763 19.063h2.288l13.906-18.991v32.827h8.509v-46.456h-7.417l-16.122 21.655-16.016-21.655h-7.417v46.456z"></path>
    <path fill="#201a30"
          d="M607.429 344.451c11.476 0 18.923-5.049 18.923-14.069 0-9.294-7.927-12.675-16.462-14.246-7.792-1.261-11.654-3.040-11.654-6.936 0-2.941 1.744-5.908 8.785-5.908 6.319 0 9.083 2.904 9.083 6.49h8.509c0-8.339-5.908-13.934-17.49-13.934-12.058 0-17.386 5.773-17.386 13.316 0 9.634 9.529 12.433 17.312 14.039 6.461 1.233 10.698 2.835 10.698 7.14 0 4.611-3.387 6.936-10.35 6.936-6.559 0-10.35-3.486-10.35-7.821h-8.509c0 7.277 5.461 14.99 18.893 14.99z"></path>
</svg>
