<svg version="1.1" xmlns="http://www.w3.org/2000/svg" width="512" height="512" viewBox="0 0 512 512">
    <path fill="#72ffff"
          d="M121.753 42.163l164.53 164.529c1.656 1.655 3.214 3.376 4.696 5.183s2.878 3.679 4.177 5.627c1.298 1.936 2.488 3.94 3.592 6.006 1.104 2.056 2.099 4.167 2.998 6.32 0.887 2.164 1.677 4.362 2.359 6.59 0.671 2.24 1.245 4.501 1.7 6.796s0.8 4.599 1.027 6.926c0.228 2.316 0.336 4.654 0.336 6.991s-0.108 4.663-0.336 6.991c-0.228 2.327-0.573 4.632-1.027 6.926-0.454 2.284-1.027 4.545-1.7 6.785-0.682 2.24-1.472 4.437-2.359 6.591-0.898 2.164-1.894 4.264-2.998 6.33-1.104 2.057-2.294 4.058-3.592 6.006-1.298 1.937-2.695 3.81-4.177 5.616s-3.041 3.538-4.696 5.195l-164.53 164.519c-44.931 44.942-121.785 13.094-121.753-50.483v-329.060c-0.033-63.48 76.822-95.316 121.753-50.385z"></path>
    <path fill="#00d7ff"
          d="M121.753 42.163c-44.682-44.682-120.65-13.451-121.71 49.325 0 0 258.894 244.965 217.718 284.887l68.674-68.663c1.644-1.656 3.214-3.377 4.696-5.183s2.868-3.68 4.166-5.627c1.298-1.937 2.5-3.94 3.603-6.006 1.092-2.057 2.099-4.166 2.986-6.32 0.898-2.164 1.688-4.361 2.359-6.591 0.682-2.24 1.245-4.502 1.7-6.796s0.8-4.599 1.027-6.926c0.228-2.327 0.346-4.654 0.346-6.991s-0.118-4.663-0.346-6.991c-0.228-2.327-0.573-4.631-1.027-6.926-0.454-2.284-1.017-4.556-1.7-6.785-0.671-2.24-1.461-4.436-2.359-6.59-0.887-2.164-1.894-4.274-2.986-6.331-1.104-2.056-2.305-4.058-3.603-6.006-1.298-1.936-2.683-3.81-4.166-5.617s-3.051-3.538-4.696-5.195z"></path>
    <path fill="#590696"
          d="M511.868 65.493c0 1.526-0.076 3.040-0.228 4.567-0.141 1.514-0.368 3.031-0.671 4.523-0.292 1.493-0.661 2.975-1.104 4.436s-0.963 2.9-1.547 4.306c-0.584 1.407-1.233 2.792-1.948 4.134-0.726 1.353-1.505 2.662-2.359 3.928-0.844 1.266-1.753 2.489-2.727 3.668-0.963 1.18-1.991 2.316-3.063 3.397-1.082 1.072-2.219 2.099-3.397 3.063-1.18 0.974-2.402 1.883-3.668 2.727-1.277 0.855-2.576 1.635-3.928 2.359-1.342 0.714-2.727 1.364-4.134 1.948s-2.846 1.104-4.307 1.547c-1.461 0.444-2.943 0.811-4.437 1.115-1.505 0.292-3.008 0.519-4.524 0.671-1.526 0.141-3.041 0.216-4.577 0.216-1.526 0-3.041-0.076-4.567-0.216-1.514-0.151-3.031-0.379-4.524-0.671-1.493-0.303-2.976-0.671-4.437-1.115s-2.901-0.963-4.307-1.547c-1.407-0.585-2.792-1.234-4.134-1.948-1.353-0.725-2.651-1.504-3.928-2.359-1.266-0.844-2.488-1.753-3.668-2.727-1.18-0.963-2.316-1.992-3.397-3.063-1.072-1.082-2.099-2.219-3.063-3.397-0.974-1.18-1.883-2.403-2.727-3.668-0.855-1.266-1.635-2.576-2.359-3.928-0.714-1.342-1.363-2.727-1.948-4.134s-1.104-2.846-1.547-4.306c-0.443-1.461-0.812-2.943-1.115-4.436-0.292-1.493-0.519-3.008-0.671-4.523-0.141-1.526-0.216-3.040-0.216-4.567 0-1.537 0.076-3.051 0.216-4.578 0.151-1.514 0.378-3.019 0.671-4.523 0.303-1.493 0.671-2.975 1.115-4.437s0.963-2.901 1.547-4.306c0.584-1.407 1.233-2.792 1.948-4.134 0.726-1.352 1.505-2.651 2.359-3.928 0.844-1.266 1.753-2.489 2.727-3.669 0.963-1.18 1.991-2.316 3.063-3.398 1.082-1.072 2.219-2.099 3.397-3.063 1.18-0.974 2.402-1.883 3.668-2.727 1.277-0.855 2.576-1.634 3.928-2.359 1.342-0.714 2.727-1.363 4.134-1.948s2.846-1.104 4.307-1.547c1.461-0.444 2.943-0.811 4.437-1.104 1.493-0.303 3.008-0.53 4.524-0.671 1.526-0.151 3.041-0.227 4.567-0.227 1.537 0 3.051 0.076 4.577 0.227 1.514 0.141 3.019 0.369 4.524 0.671 1.493 0.292 2.976 0.66 4.437 1.104s2.901 0.963 4.307 1.547c1.407 0.584 2.792 1.233 4.134 1.948 1.353 0.726 2.651 1.505 3.928 2.359 1.266 0.844 2.488 1.753 3.668 2.727 1.18 0.963 2.316 1.991 3.397 3.063 1.072 1.083 2.099 2.218 3.063 3.398 0.974 1.18 1.883 2.403 2.727 3.669 0.855 1.278 1.635 2.576 2.359 3.928 0.714 1.342 1.363 2.727 1.948 4.134s1.104 2.846 1.547 4.306c0.443 1.461 0.812 2.943 1.104 4.437 0.303 1.505 0.531 3.008 0.671 4.523 0.151 1.526 0.228 3.041 0.228 4.578z"></path>
    <path fill="#0096ff"
          d="M490.962 207.093l-164.529-164.53c-44.173-44.206-161.9 7.056-121.612 47.344l118.322 118.355c1.644 1.655 3.214 3.376 4.696 5.183s2.878 3.679 4.177 5.617c1.298 1.948 2.5 3.95 3.603 6.006 1.092 2.056 2.099 4.167 2.986 6.32 0.898 2.164 1.688 4.362 2.359 6.59 0.682 2.24 1.245 4.501 1.709 6.796 0.454 2.284 0.791 4.599 1.027 6.915 0.228 2.327 0.336 4.654 0.336 6.991s-0.108 4.663-0.346 6.991c-0.228 2.327-0.563 4.632-1.017 6.926-0.466 2.294-1.027 4.556-1.709 6.785-0.671 2.24-1.461 4.437-2.359 6.591-0.887 2.164-1.894 4.264-2.986 6.33-1.104 2.057-2.305 4.058-3.603 5.995-1.298 1.948-2.695 3.82-4.177 5.627-1.482 1.796-3.051 3.527-4.696 5.173l-118.246 118.279c-36.047 36.014 77.806 89.136 121.536 45.418l164.529-164.529c1.656-1.656 3.236-3.387 4.728-5.195s2.889-3.69 4.199-5.637c1.31-1.948 2.511-3.95 3.625-6.017 1.104-2.067 2.11-4.177 3.008-6.341s1.7-4.372 2.381-6.611c0.682-2.251 1.255-4.524 1.709-6.817 0.466-2.294 0.8-4.621 1.039-6.947 0.228-2.337 0.346-4.675 0.346-7.024 0-2.338-0.118-4.675-0.346-7.012-0.238-2.338-0.573-4.654-1.039-6.947-0.454-2.305-1.027-4.577-1.709-6.817s-1.482-4.447-2.381-6.612c-0.898-2.164-1.904-4.274-3.008-6.341-1.115-2.066-2.316-4.079-3.625-6.027-1.31-1.936-2.705-3.82-4.199-5.627s-3.073-3.538-4.728-5.195z"></path>
    <path fill="#5800ff"
          d="M490.962 207.093l-164.529-164.53c-44.173-44.206-161.9 7.056-121.612 47.344l118.322 118.355c5.714 5.702 10.313 12.196 13.808 19.468 3.506 7.272 5.702 14.922 6.591 22.941 40.764 47.864 74.657 94.33 81.713 123.289l65.817-65.805c1.656-1.656 3.225-3.387 4.707-5.205 1.493-1.807 2.889-3.68 4.188-5.627s2.5-3.95 3.603-6.017c1.104-2.067 2.11-4.177 2.998-6.341 0.898-2.164 1.688-4.372 2.37-6.611 0.671-2.24 1.245-4.512 1.7-6.806s0.791-4.61 1.017-6.936c0.228-2.337 0.346-4.663 0.346-7.012-0.011-2.338-0.118-4.675-0.357-7.001-0.228-2.338-0.573-4.643-1.039-6.947-0.466-2.294-1.027-4.556-1.721-6.796-0.682-2.24-1.472-4.436-2.37-6.601s-1.904-4.274-3.019-6.341c-1.104-2.056-2.305-4.058-3.615-6.006s-2.705-3.82-4.199-5.627c-1.482-1.807-3.063-3.528-4.719-5.183z"></path>
</svg>
