<svg width="23" height="27" viewBox="0 0 23 27" fill="none" xmlns="http://www.w3.org/2000/svg">
<path d="M11.4999 26.2604C8.69581 26.2604 6.00654 25.1465 4.02374 23.1637C2.04093 21.1809 0.927002 18.4916 0.927002 15.6875C0.927002 12.8834 2.04093 10.1941 4.02374 8.21133C6.00654 6.22852 8.69581 5.11459 11.4999 5.11459H15.1458C15.4358 5.11459 15.714 5.22983 15.9191 5.43495C16.1243 5.64006 16.2395 5.91826 16.2395 6.20834C16.2395 6.49842 16.1243 6.77662 15.9191 6.98174C15.714 7.18686 15.4358 7.30209 15.1458 7.30209H11.4999C9.84144 7.30209 8.22021 7.79389 6.84123 8.71529C5.46226 9.63669 4.38748 10.9463 3.7528 12.4785C3.11813 14.0108 2.95207 15.6968 3.27563 17.3234C3.59918 18.95 4.39781 20.4442 5.57053 21.6169C6.74325 22.7896 8.23739 23.5882 9.86401 23.9118C11.4906 24.2354 13.1766 24.0693 14.7089 23.4346C16.2411 22.8 17.5507 21.7252 18.4721 20.3462C19.3935 18.9672 19.8853 17.346 19.8853 15.6875C19.8853 15.3974 20.0006 15.1192 20.2057 14.9141C20.4108 14.709 20.689 14.5938 20.9791 14.5938C21.2692 14.5938 21.5474 14.709 21.7525 14.9141C21.9576 15.1192 22.0728 15.3974 22.0728 15.6875C22.069 18.4904 20.9538 21.1775 18.9718 23.1594C16.9899 25.1414 14.3028 26.2566 11.4999 26.2604Z" fill="#fff"/>
<path d="M11.4999 11.6771C11.3562 11.6778 11.2138 11.6497 11.0811 11.5946C10.9484 11.5396 10.828 11.4585 10.727 11.3563C10.5222 11.1512 10.4072 10.8732 10.4072 10.5833C10.4072 10.2935 10.5222 10.0155 10.727 9.81043L14.3291 6.20834L10.727 2.60626C10.6196 2.50613 10.5334 2.38538 10.4736 2.25121C10.4138 2.11705 10.3817 1.97221 10.3791 1.82536C10.3765 1.6785 10.4035 1.53262 10.4585 1.39643C10.5135 1.26024 10.5954 1.13652 10.6993 1.03266C10.8031 0.928802 10.9268 0.846925 11.063 0.791915C11.1992 0.736905 11.3451 0.70989 11.492 0.712481C11.6388 0.715072 11.7836 0.747217 11.9178 0.806997C12.052 0.866777 12.1727 0.952967 12.2729 1.06043L16.6479 5.43543C16.8527 5.64051 16.9677 5.9185 16.9677 6.20834C16.9677 6.49819 16.8527 6.77618 16.6479 6.98126L12.2729 11.3563C12.1719 11.4585 12.0515 11.5396 11.9188 11.5946C11.786 11.6497 11.6436 11.6778 11.4999 11.6771Z" fill="#fff"/>
</svg>
